# xmcd
# 
# Track frame offsets:
#     150
#     19268
#     42725
#     60963
#     75878
#     92383
#     113956
#     131216
#     145920
#     166680
#     182874
#     200534
# 
# Disc length: 2881
# 
# Revision: 1
# Processed by: cddbd v1.5.2PL0 Copyright (c) Steve Scherf et al.
# Submitted via: fre:ac v1.0.27
# 
DISCID=9b0b3f0c
DTITLE=Fontaine Brown - Tales From The Fence Line
DYEAR=2008
DGENRE=Blues Rock
TTITLE0=Ain't No Brakeman
TTITLE1=Fence Line
TTITLE2=Detroit Saturday
TTITLE3=Closer To The Flame
TTITLE4=Love Come Rescue Me
TTITLE5=Southside Story
TTITLE6=Lost In The Sensation
TTITLE7=Wreck At The Crossroads
TTITLE8=Just Out Of Reach
TTITLE9=Pool Of Light
TTITLE10=Got To Git
TTITLE11=Endless Road
EXTD=YEAR: 2008
EXTT0=
EXTT1=
EXTT2=
EXTT3=
EXTT4=
EXTT5=
EXTT6=
EXTT7=
EXTT8=
EXTT9=
EXTT10=
EXTT11=
PLAYORDER=
